<svg fill="#f2f2f2" xmlns="http://www.w3.org/2000/svg" xmlns:xlink="http://www.w3.org/1999/xlink" version="1.1" x="0px" y="0px" viewBox="0 0 100 100" style="enable-background:new 0 0 100 100;" xml:space="preserve"><g><path d="M83.3793793,82.3890076c-2.0474396,0-3.7137909-1.6692123-3.7137909-3.7214203   c0-0.5387726-0.4363556-0.9756088-0.9756088-0.9756088s-0.9756088,0.4368362-0.9756088,0.9756088   c0,2.0522079-1.6692123,3.7214203-3.7214203,3.7214203c-0.5392532,0-0.9756088,0.4368286-0.9756088,0.9756088   c0,0.5387726,0.4363556,0.9756088,0.9756088,0.9756088c2.0522079,0,3.7214203,1.6658707,3.7214203,3.7133179   c0,0.5387802,0.4363556,0.9756088,0.9756088,0.9756088s0.9756088-0.4368286,0.9756088-0.9756088   c0-2.0474472,1.6663513-3.7133179,3.7137909-3.7133179c0.5392532,0,0.9756165-0.4368362,0.9756165-0.9756088   C84.3549957,82.8258362,83.9186325,82.3890076,83.3793793,82.3890076z M78.6890259,84.8794785   c-0.4049149-0.5954666-0.9213028-1.1109009-1.5177231-1.5153427c0.5964203-0.4053879,1.1128082-0.9213028,1.5177231-1.5181961   c0.4049149,0.5968933,0.9203491,1.1128082,1.5158157,1.5181961C79.609375,83.7685776,79.0939407,84.2840118,78.6890259,84.8794785z   "></path><path d="M12.8715706,22.3118324c2.0522099,0,3.7214165,1.6658726,3.7214165,3.7133198   c0,0.5387764,0.4363575,0.9756107,0.9756107,0.9756107s0.9756088-0.4368343,0.9756088-0.9756107   c0-2.0474472,1.6663494-3.7133198,3.7137966-3.7133198c0.5392532,0,0.9756088-0.4368324,0.9756088-0.9756088   s-0.4363556-0.9756107-0.9756088-0.9756107c-2.0474472,0-3.7137966-1.6692066-3.7137966-3.7214165   c0-0.5387764-0.4363556-0.9756107-0.9756088-0.9756107s-0.9756107,0.4368343-0.9756107,0.9756107   c0,2.0522099-1.6692066,3.7214165-3.7214165,3.7214165c-0.5392532,0-0.9756098,0.4368343-0.9756098,0.9756107   S12.3323174,22.3118324,12.8715706,22.3118324z M17.5676441,19.8175488c0.4049168,0.5968952,0.920351,1.1128063,1.5158157,1.518198   c-0.5954647,0.4044399-1.110899,0.9198742-1.5158157,1.5153389c-0.4049149-0.5954647-0.9213028-1.110899-1.5177212-1.5153389   C16.6463413,20.9303551,17.1627293,20.414444,17.5676441,19.8175488z"></path><path d="M69.3006897,17.6190929c2.0522079,0,3.7214127,1.6658726,3.7214127,3.7133198   c0,0.5387764,0.4363556,0.9756088,0.9756088,0.9756088s0.9756088-0.4368324,0.9756088-0.9756088   c0-2.0474472,1.6653976-3.7133198,3.7128448-3.7133198c0.5392532,0,0.9756088-0.4368324,0.9756088-0.9756088   c0-0.5387783-0.4363556-0.9756107-0.9756088-0.9756107c-2.0474472,0-3.7128448-1.6692076-3.7128448-3.7214174   c0-0.5387764-0.4363556-0.9756098-0.9756088-0.9756098s-0.9756088,0.4368334-0.9756088,0.9756098   c0,2.0522099-1.6692047,3.7214174-3.7214127,3.7214174c-0.5392532,0-0.9756165,0.4368324-0.9756165,0.9756107   C68.3250732,17.1822605,68.7614365,17.6190929,69.3006897,17.6190929z M73.9967575,15.1252861   c0.4049225,0.5964174,0.9203568,1.1123276,1.5158157,1.5177212c-0.595459,0.4044399-1.1108932,0.9193974-1.5158157,1.5153389   c-0.4049149-0.5959415-0.9213028-1.110899-1.5177155-1.5153389C73.0754547,16.2376137,73.5918427,15.7217035,73.9967575,15.1252861   z"></path><path d="M90,43.6923599c0-0.0067291-0.0036926-0.012207-0.0038147-0.0188789v-9.9115715   c0-1.1599655-0.9441681-2.1036587-2.103653-2.1036587c-0.4153976,0-0.8022156,0.1205215-1.1290054,0.3286972   c-0.6516724-0.4163494-1.6044159-0.4163494-2.2560959,0c-0.65168-0.4163494-1.6044235-0.4163494-2.2560959,0   c-0.3258362-0.2081757-0.7136078-0.3286972-1.1280518-0.3286972c-1.1604385,0-2.1046066,0.9436932-2.1046066,2.1036587v2.2103653   c-1.1804504-0.0795555-2.2561035,0.8874817-2.2561035,2.098896v3.3655663c0,1.4268532,0.9357758,2.6269531,2.2208481,3.0541992   c-0.5663452,19.5447693-21.5477905,21.7649612-21.7263718,21.7776413h-1.2433319v-1.252861h4.0558319   c3.5232468,0,6.3890991-2.8568001,6.3890991-6.3686142V46.2133179V29.0091457c0-3.2293243-2.6276665-5.8565159-5.856514-5.8565159   H27.9211121c-0.9536953,0-1.729229,0.7755337-1.729229,1.728754v7.8539448c0,3.7252274,2.7715321,6.9759903,6.4615097,7.5638313   c0.3111305,0.0447807,0.5997505,0.0548439,0.8908157,0.0664558v18.2814865c0,3.5118141,2.8610878,6.3686142,6.3786201,6.3686142   h4.0558281v1.2532806l-1.1975975,0.0005341c-0.2152596-0.0136337-21.2049236-2.2231064-21.7720432-21.7774048   c1.2869778-0.4261742,2.224596-1.6271057,2.224596-3.0553894v-3.3655663c0-1.2114143-1.0651665-2.1794014-2.2560959-2.098896   v-2.2103653c0-1.1599655-0.94417-2.1036587-2.1046124-2.1036587c-0.414444,0-0.8022099,0.1205215-1.1280479,0.3286972   c-0.6516781-0.4163494-1.6044216-0.4163494-2.2560978,0c-0.6526299-0.4168262-1.6044216-0.4158726-2.2570505,0   c-0.325839-0.2081757-0.7136059-0.3286972-1.1280489-0.3286972C10.944169,31.6582508,10,32.601944,10,33.7619095v9.9314041   c0,0.0057144,0.0031557,0.0104179,0.0032749,0.0161362c0.0086937,24.6007996,18.3758698,31.2642899,25.3301868,32.8978271   l-1.0918465,11.3528976c-0.0266762,0.2739182,0.0638351,0.5459213,0.2486649,0.7493362   c0.1848335,0.2034073,0.4468384,0.3196411,0.7221832,0.3196411h29.5779343c0.2753448,0,0.5373459-0.1162338,0.7221756-0.3201218   c0.1848373-0.2034073,0.2753448-0.4758911,0.2486725-0.7498093l-1.1013718-11.351944   C71.6177597,74.972374,90,68.305542,90,43.6923599z M78.7137985,41.4367371v-3.3655663   c0-0.0843201,0.0685959-0.152916,0.1524353-0.152916s0.1524429,0.0685959,0.1524429,0.152916   c0,0.5387764,0.4363556,0.9756088,0.9756088,0.9756088s0.9756088-0.4368324,0.9756088-0.9756088v-4.3092613   c0.0009537-0.1662521,0.3067856-0.1681595,0.3058319,0c0,0.5387764,0.4363556,0.9756088,0.9756088,0.9756088   s0.9756088-0.4368324,0.9756088-0.9756088c0-0.1676826,0.3048782-0.1676826,0.3048782,0   c0,0.5387764,0.4363556,0.9756088,0.9756088,0.9756088s0.9756088-0.4368324,0.9756088-0.9756088   c0-0.1676826,0.3048782-0.1676826,0.3048782,0c0,0.5387764,0.4363556,0.9756088,0.9756088,0.9756088   s0.9756088-0.4368324,0.9756088-0.9756088c0-0.1662521,0.3067856-0.1681595,0.3058319,0v8.9548416h-8.0553894   C79.2858582,42.7140083,78.7137985,42.1415291,78.7137985,41.4367371z M34.5198174,38.4384537h-0.6526299   c-0.3029709,0-0.6002274-0.0223923-0.9213028-0.0685997c-2.7381859-0.4358788-4.8027821-2.8582306-4.8027821-5.6345253v-7.6314793   h32.4590302c2.1532021,0,3.9052963,1.7520962,3.9052963,3.9052963v16.9769459   c-0.1332016-0.0041122-0.2641449-0.0181618-0.3956833-0.0294762c-0.090332-0.0077438-0.1819763-0.010006-0.2714157-0.0211411   c-0.1343956-0.016613-0.2656975-0.0438271-0.3980103-0.0677643c-0.088604-0.0160179-0.1787567-0.0269127-0.2663498-0.0461464   c-0.1289177-0.0283432-0.2543221-0.0667534-0.3807983-0.1018829c-0.0881882-0.0244751-0.1782227-0.0441246-0.2651634-0.0718155   c-0.1237373-0.0394211-0.2433052-0.0883675-0.3643036-0.1341591c-0.0855103-0.0323906-0.1731606-0.0600204-0.2572403-0.0955124   c-0.1193924-0.0503769-0.2340775-0.1097412-0.3503151-0.1661949c-0.0816345-0.0396576-0.1657143-0.0747299-0.2456856-0.1172447   c-0.1167107-0.0620461-0.2280655-0.1327286-0.3410835-0.2007332c-0.0745506-0.0448952-0.151844-0.0854492-0.2246704-0.1328468   c-0.1133766-0.0738373-0.2209167-0.1558914-0.3300056-0.2356262c-0.0674057-0.0492439-0.1378517-0.0944977-0.2035904-0.1459465   c-0.1138535-0.0892029-0.220974-0.186264-0.3294106-0.2818336c-0.0551987-0.0487099-0.1137314-0.0935478-0.1675034-0.1438065   c-0.112545-0.105278-0.217701-0.2179413-0.3235779-0.3299446c-0.0441208-0.0467453-0.091877-0.0900955-0.1348114-0.1379128   c-0.1053963-0.117424-0.202755-0.2418785-0.3005905-0.3658524c-0.037632-0.0477562-0.0789604-0.0922966-0.1154594-0.1409454   c-0.0999794-0.1333275-0.1913834-0.27314-0.2823105-0.4132538c-0.0284042-0.043766-0.0605583-0.0849152-0.0880699-0.1292763   c-0.089798-0.1450539-0.1703644-0.2961235-0.2500954-0.4475517c-0.0228653-0.0434074-0.0495415-0.0843773-0.0715752-0.1283226   c-0.0791969-0.1580963-0.1485672-0.3215485-0.2162743-0.4858398c-0.0166702-0.0405502-0.0373344-0.0790176-0.0532913-0.1199265   c-0.0668716-0.1710777-0.1235008-0.3470955-0.1774483-0.5240669c-0.0112572-0.0368614-0.0262032-0.0719337-0.0368614-0.1089706   c-0.0594864-0.2070427-0.1089096-0.4182549-0.1498795-0.6323853c-0.001606-0.0083351-0.0042267-0.0162544-0.0057755-0.0245934   c-0.0418015-0.2228813-0.0733604-0.449276-0.0940247-0.6787109c-0.0457306-0.5025711-0.4668427-0.8879547-0.9717979-0.8879547   H34.5198174z M39.9228287,63.0644989c-2.4409294,0-4.4274025-1.9817047-4.4274025-4.4173965v-18.257431h20.101944   c0.050972,0.2670059,0.1139145,0.5299034,0.1876297,0.7882767c0.0198898,0.0697289,0.0466843,0.136364,0.0681839,0.2053757   c0.0581169,0.1866798,0.1162338,0.3732986,0.1857224,0.5546761c0.0323944,0.0843773,0.0722923,0.1648865,0.1070061,0.2480698   c0.067646,0.1619682,0.1336212,0.3248291,0.2101402,0.48209c0.0438271,0.0899734,0.0950356,0.1754837,0.1416016,0.2637901   c0.0762787,0.1445808,0.1503563,0.2904091,0.2338982,0.4304619c0.0559731,0.0937271,0.1190338,0.1823311,0.1781616,0.2739143   c0.0834846,0.1293335,0.1645889,0.2603951,0.2542076,0.3853264c0.064846,0.0903893,0.1363602,0.1753616,0.204361,0.2633133   c0.0922966,0.1193924,0.1823311,0.240448,0.2801094,0.3551941c0.0755615,0.088665,0.1573792,0.1714935,0.2361603,0.2573013   c0.0978355,0.1065292,0.1935272,0.214962,0.2960663,0.3168488c0.0865784,0.0859833,0.178875,0.165657,0.2686119,0.2483063   c0.1026573,0.0944405,0.2032928,0.1909065,0.3100586,0.2807617c0.0950966,0.0800323,0.1953735,0.153511,0.2936249,0.2297897   c0.1083145,0.0841408,0.2148438,0.1703033,0.3267899,0.2496796c0.1037292,0.0736008,0.2121048,0.1403503,0.3188133,0.2097244   c0.1128387,0.0733604,0.2241325,0.1488037,0.3401871,0.2173424c0.1105194,0.0653229,0.2250862,0.123558,0.3382835,0.1843567   c0.1184998,0.0636559,0.2356873,0.1291542,0.3570404,0.187748c0.1165924,0.0562744,0.2366409,0.1052818,0.355732,0.1567879   c0.1229057,0.0531158,0.2446785,0.108078,0.3700218,0.1559525c0.1220131,0.046566,0.2469406,0.085865,0.371212,0.1273689   c0.1277275,0.0426941,0.2546234,0.086998,0.384613,0.124157c0.1261787,0.0360222,0.2547989,0.064724,0.382885,0.0954514   c0.1318932,0.03162,0.2629547,0.064785,0.396698,0.0906296c0.1300468,0.0251274,0.2621231,0.0428734,0.3938408,0.0624046   c0.1356468,0.0201263,0.2708168,0.0415649,0.4080696,0.0556183c0.1332054,0.0136948,0.2679634,0.019886,0.4025383,0.0276871   c0.1028366,0.0059547,0.2041855,0.0186386,0.3077927,0.0211411v10.7078857c0,2.4356918-1.9912338,4.4173965-4.4378815,4.4173965   h-5.0314407c-0.5392532,0-0.9756279,0.4368362-0.9756279,0.9756088v2.8625183c0,0.080513,0.0019264,0.1686401-0.0076027,0.2705841   c-0.0076218,0.1000366-0.0142899,0.2005539-0.0333481,0.3144073c-0.2839165,1.9902802-2.0150528,3.4908524-4.025341,3.4908524   c-2.0198174,0-3.75-1.5072403-4.0291557-3.5337296c-0.0152435-0.0919418-0.0219116-0.1848297-0.0295525-0.2772446   l-0.0003395-0.0010147c-0.0004768-0.0055389-0.0011292-0.0092316-0.0015488-0.0142288   c-0.0076218-0.080986-0.0057144-0.1614914-0.0057144-0.2496262v-2.8625183c0-0.5387726-0.4363556-0.9756088-0.9756088-0.9756088   H39.9228287z M11.9512196,33.7619095c0-0.1676826,0.3048782-0.1676826,0.3048782,0   c0,0.5387764,0.4363565,0.9756088,0.9756098,0.9756088s0.9756098-0.4368324,0.9756098-0.9756088   c0-0.1662521,0.3067837-0.1681595,0.305831,0c0,0.5387764,0.4363565,0.9756088,0.9756098,0.9756088   s0.9756088-0.4368324,0.9756088-0.9756088c0-0.1676826,0.3048782-0.1676826,0.3048782,0   c0,0.5387764,0.4363575,0.9756088,0.9756107,0.9756088s0.9756088-0.4368324,0.9756088-0.9756088   c0-0.1686363,0.3058319-0.166729,0.3058319,0v4.3092613c0,0.5387764,0.4363556,0.9756088,0.9756088,0.9756088   s0.9756107-0.4368324,0.9756107-0.9756088c0-0.1686363,0.3048763-0.1686363,0.3048763,0v3.3655663   c0,0.704792-0.5720615,1.2772713-1.2757835,1.280014h-8.0553894V33.7619095z M36.2862053,87.0779343l1.0718346-11.1437683   c0.0476379-0.495903-0.28582-0.9484558-0.7736282-1.0489731c-5.7002048-1.1747284-24.1210327-6.802887-24.6197929-30.2162704   h7.0826979C19.7311478,65.697113,42.5114326,68.2197952,42.744854,68.2197952h1.3795738   c0.0248299,0.1115952,0.070919,0.2137146,0.1018257,0.3227463c0.0431099,0.1521988,0.0872345,0.3023758,0.1417198,0.4492798   c0.0682411,0.183754,0.1484489,0.3592377,0.2336006,0.5338287c0.0681229,0.1398163,0.1347542,0.278801,0.2131157,0.4122467   c0.0979538,0.1667862,0.2084732,0.3226776,0.3214951,0.478569c0.0899124,0.1241531,0.1764336,0.249321,0.27528,0.3659744   c0.1251106,0.1477356,0.2628403,0.2814789,0.4012871,0.4163513c0.1081352,0.1055145,0.2115059,0.2143097,0.3272057,0.3114243   c0.1507111,0.1265411,0.3135719,0.2353897,0.476017,0.3468628c0.1215935,0.0834808,0.2374115,0.1731033,0.3650169,0.2476501   c0.1778069,0.1038513,0.3671646,0.1857834,0.5554504,0.2712936c0.1271324,0.0577621,0.2483101,0.1252899,0.3797302,0.1742325   c0.2162704,0.0805664,0.4431419,0.1338654,0.6695976,0.1893005c0.1148682,0.0281067,0.2243118,0.0697327,0.3414421,0.0911026   c0.3482246,0.0634766,0.7049713,0.0990295,1.0689774,0.0990295c0.3629341,0,0.7189064-0.0353088,1.0663567-0.098671   c0.1187363-0.0216141,0.2296715-0.0639496,0.3460846-0.0925293c0.2244911-0.0552063,0.4496384-0.1075439,0.6642418-0.1873932   c0.1314201-0.0488281,0.2524185-0.1165924,0.3795509-0.1742935c0.1881676-0.0853348,0.3777008-0.1665573,0.5554504-0.2701035   c0.1277847-0.0744324,0.2434845-0.1645889,0.3652573-0.2479553c0.1620865-0.1108704,0.3252411-0.2186508,0.4756584-0.3444138   c0.1164131-0.0972977,0.2197266-0.2068634,0.3285179-0.3125c0.1377907-0.1337433,0.2756996-0.2655792,0.4003296-0.4118805   c0.0996208-0.11689,0.1859055-0.242897,0.276535-0.3672256c0.1124229-0.1542282,0.2234764-0.3076782,0.3210754-0.4725037   c0.0790749-0.1335602,0.1450539-0.2733154,0.2137108-0.4132538c0.0846748-0.1724472,0.1660156-0.3450699,0.2340164-0.5263901   c0.0549622-0.1465988,0.0978355-0.2970734,0.1412468-0.4489822c0.0329857-0.1152802,0.081459-0.2237167,0.1075401-0.3417969   h1.3852882c0.2334213,0,23.0041809-2.5226822,23.6880112-23.5508728h7.0931778   c-0.4987564,23.4114761-18.9281616,29.0410614-24.6302719,30.2162704   c-0.4878082,0.1005173-0.8222198,0.5535431-0.7736282,1.0499268l1.0813637,11.1428146H36.2862053z"></path><path d="M52.6972198,34.0810776H35.5135307c-0.1648254,0-0.3286972-0.0133362-0.5049553-0.0385857   c-1.2852516-0.2053146-2.2923012-1.4076805-2.2923012-2.737709c0-0.5387764-0.4363594-0.9756107-0.9756107-0.9756107   c-0.5392532,0-0.9756107,0.4368343-0.9756107,0.9756107c0,2.3013535,1.6920738,4.3064041,3.9510307,4.6665382   c0.2915382,0.0419235,0.5449677,0.0609779,0.7974472,0.0609779h17.1836891c0.5392494,0,0.9756088-0.4368324,0.9756088-0.9756126   C53.6728287,34.51791,53.2364693,34.0810776,52.6972198,34.0810776z"></path><path d="M57.9525528,35.0566864c0-0.5387764-0.4363556-0.9756088-0.9756088-0.9756088h-0.7317085   c-0.5392532,0-0.9756088,0.4368324-0.9756088,0.9756088c0,0.5387802,0.4363556,0.9756126,0.9756088,0.9756126h0.7317085   C57.5161972,36.032299,57.9525528,35.5954666,57.9525528,35.0566864z"></path><path d="M42.6295738,49.547924c0.8812866-0.7974472,2.2446632-0.7317085,3.0382996,0.1433868   c0.193409,0.2124634,0.4573174,0.3201218,0.7231331,0.3201218c0.234375,0,0.46875-0.0833664,0.6554871-0.2529526   c0.3992004-0.3620415,0.4287338-0.9789467,0.067646-1.3781433c-1.5148621-1.6692085-4.1120453-1.7959251-5.7917328-0.2805862   c-0.4001503,0.3610916-0.431591,0.977993-0.0704994,1.3776703C41.6139488,49.8790016,42.2303734,49.908535,42.6295738,49.547924z"></path><path d="M58.9596024,53.8943405c0.3620453-0.3987236,0.3325081-1.015625-0.0657387-1.3781433   c-0.3972931-0.3620415-1.0137177-0.3329849-1.3786201,0.0652618c-2.0169601,2.2175102-4.6855927,3.4389305-7.5142899,3.4389305   s-5.4973335-1.2214203-7.51334-3.4389305c-0.3629951-0.3982468-0.9803734-0.4273033-1.3786201-0.0652618   c-0.3982468,0.3625183-0.4277802,0.9794197-0.0657387,1.3781433c2.3904343,2.629097,5.5716476,4.0772667,8.9576988,4.0772667   C53.3860512,57.9716072,56.5672646,56.5234375,58.9596024,53.8943405z"></path><path d="M53.6109009,50.0114326c0.2648621,0,0.5287704-0.1076584,0.7212257-0.3191681   c0.7964935-0.8765259,2.1589165-0.9413109,3.0402069-0.1448174c0.4001503,0.3601379,1.0165749,0.3315544,1.3776665-0.0690727   c0.3620415-0.3996773,0.3306007-1.0165787-0.0685959-1.3781471c-1.6730194-1.5148621-4.2740097-1.389576-5.7917328,0.2791557   c-0.3629951,0.3982468-0.3334579,1.015625,0.0647888,1.3781433C53.1411972,49.9275932,53.3765259,50.0114326,53.6109009,50.0114326   z"></path><path d="M57.4237823,77.4161606H42.578125c-0.5392532,0-0.9756088,0.4368286-0.9756088,0.9756088v5.1891174   c0,0.5387802,0.4363556,0.9756088,0.9756088,0.9756088h14.8456573c0.5392494,0,0.9756088-0.4368286,0.9756088-0.9756088v-5.1891174   C58.3993912,77.8529892,57.9630318,77.4161606,57.4237823,77.4161606z M56.4481697,82.605278H43.5537338v-3.2378998h12.8944359   V82.605278z"></path></g></svg>