<svg enable-background="new 0 0 393.541 393.541" viewBox="0 0 393.541 393.541" xmlns="http://www.w3.org/2000/svg"><path d="m384.045 363.079-121.205-58.267-.913-264.132c-.021-6.166 6.416-10.229 11.973-7.557l114.908 55.256c2.893 1.391 4.733 4.318 4.733 7.528v261.201c-.001 4.881-5.098 8.086-9.496 5.971z" fill="#00fd8d"/><path d="m262.84 304.812-131.18-63.072 126.288-207.922c2.231-3.673 6.886-5.054 10.759-3.192l116.514 56.029c4.454 2.142 6.085 7.661 3.51 11.879z" fill="#00e470"/><path d="m262.84 304.812-131.18-63.072-120.239-195.798c-3.35-5.455 2.479-11.914 8.248-9.14l111.991 53.853z" fill="#00c967"/><path d="m122.164 363.078-118.41-56.94c-2.295-1.104-3.754-3.425-3.754-5.971v-262.619c0-4.726 4.937-7.831 9.197-5.782l122.463 58.889v266.452c0 4.881-5.098 8.086-9.496 5.971z" fill="#00ad6c"/></svg>