<svg enable-background="new 0 0 512 512" viewBox="0 0 512 512" xmlns="http://www.w3.org/2000/svg"><circle cx="256" cy="256" fill="#a258cb" r="256"/><path d="m256 0c-11.317 0-22.461.744-33.391 2.167 125.607 16.363 222.608 123.766 222.608 253.833s-97.002 237.47-222.609 253.833c10.931 1.423 22.075 2.167 33.392 2.167 141.385 0 256-114.616 256-256s-114.615-256-256-256z" fill="#933ec6"/><path d="m169.472 409.345-23.026-37.754c-1.282-2.101-3.565-3.384-6.027-3.384h-44.873c-3.899 0-7.06-3.161-7.06-7.06v-203.174c0-1.28.347-2.536 1.006-3.632l30.572-50.951c1.276-2.126 3.574-3.427 6.054-3.427h279.206c3.899 0 7.06 3.161 7.06 7.06v168.89c0 1.872-.743 3.667-2.068 4.992l-85.235 85.235c-1.323 1.323-3.12 2.068-4.992 2.068h-82.111c-2.442 0-4.712 1.262-5.999 3.338l-23.48 37.846c-1.288 2.076-3.556 3.338-5.999 3.338h-27c-2.462-.001-4.746-1.283-6.028-3.385z" fill="#6e2c92"/><path d="m167.87 323.685h-19.702c-2.226 0-4.03-1.804-4.03-4.03v-160.01c0-2.226 1.804-4.029 4.03-4.029h226.793c2.226 0 4.03 1.804 4.03 4.03v95.262c0 1.069-.424 2.094-1.18 2.849l-64.748 64.748c-.756.756-1.781 1.18-2.849 1.18h-99.65c-1.446 0-2.781.775-3.498 2.03l-14.349 25.11c-1.547 2.707-5.451 2.707-6.998 0l-14.349-25.11c-.718-1.255-2.054-2.03-3.5-2.03z" fill="#fff"/><g fill="#6e2c92"><path d="m199.791 264.494v-60.817c0-1.954 1.585-3.539 3.539-3.539h27.425c1.954 0 3.539 1.585 3.539 3.539v60.817c0 1.954-1.585 3.539-3.539 3.539h-27.425c-1.954 0-3.539-1.585-3.539-3.539z"/><path d="m277.704 264.494v-60.817c0-1.954 1.585-3.539 3.539-3.539h27.425c1.954 0 3.539 1.585 3.539 3.539v60.817c0 1.954-1.585 3.539-3.539 3.539h-27.425c-1.954 0-3.539-1.585-3.539-3.539z"/></g></svg>