<svg xmlns="http://www.w3.org/2000/svg" xmlns:xlink="http://www.w3.org/1999/xlink" version="1.1" x="0px" y="0px" viewBox="0 0 100 100" enable-background="new 0 0 100 100" xml:space="preserve" fill='#ffffff'><path d="M57.941,11.346l-0.175-0.304l-15.51,0.009L5,75.56l7.743,13.389l74.536,0.01L95,75.56L57.941,11.346z M13.093,87.123  l-0.817-1.412l30.342-52.555l16.752,29.015h-1.658L42.607,36.003L13.093,87.123z M38.365,71.424h48.809L53.016,12.262l1.816-0.001  l35.056,60.718l-52.421,0.001L38.365,71.424z M86.33,70.936H38.646l0.898-1.555h44.071L50.638,12.263l1.816-0.001L86.33,70.936z   M82.771,68.894H39.825l0.898-1.555l39.335-0.001L48.26,12.265l1.816-0.001L82.771,68.894z M79.214,66.851l-38.21,0.001l0.898-1.556  H76.5l-30.617-53.03l1.815-0.001L79.214,66.851z M75.656,64.809H42.184l0.82-1.42h30.168L43.661,12.268l1.659-0.001L75.656,64.809z   M56.309,62.171H43.706l6.301-10.914L56.309,62.171z M67.007,62.171L42.799,20.241l-0.211-0.365L8.424,79.05l-0.909-1.572  l35.063-60.731l26.227,45.425H67.007z M42.588,20.849l23.858,41.322h-1.797L42.599,23.978L9.614,81.108l-0.909-1.572L42.588,20.849z   M42.599,24.952l21.49,37.22h-1.797L42.609,28.081L10.805,83.166l-0.909-1.572L42.599,24.952z M42.609,29.054L61.73,62.171h-1.799  L42.619,32.183L11.995,85.225l-0.91-1.573L42.609,29.054z M44.651,41.977L20.24,84.262h68.34l-0.906,1.573H17.534l26.219-45.412  L44.651,41.977z M21.082,83.774l23.85-41.31l0.898,1.555L23.787,82.201h65.981l-0.907,1.574H21.082z M24.63,81.713l21.482-37.206  l0.898,1.555L27.335,80.141h63.62l-0.906,1.573H24.63z M28.178,79.654L47.29,46.55l0.898,1.555L30.883,78.081h61.259l-0.906,1.573  H28.178z M31.726,77.594L48.47,48.592l0.836,1.447L34.219,76.169h59.025l-0.821,1.425H31.726z M93.244,74.951H36.328l0.857-1.485  l53.546-0.001L55.393,12.26l1.67-0.001L93.244,74.951z M42.607,12.877l28.456,49.295h-1.698L42.789,16.138l-0.211-0.365  L7.234,76.992L6.406,75.56L42.607,12.877z M86.575,87.741l-72.427-0.009l28.46-49.294l0.864,1.497l-26.57,46.022l-0.21,0.365h70.701  L86.575,87.741z"/></svg>