<?xml version="1.0" encoding="iso-8859-1"?>
<!-- Generator: Adobe Illustrator 19.0.0, SVG Export Plug-In . SVG Version: 6.00 Build 0)  -->
<svg version="1.1" id="Capa_1" xmlns="http://www.w3.org/2000/svg" xmlns:xlink="http://www.w3.org/1999/xlink" x="0px" y="0px"
	 viewBox="0 0 512 512" style="enable-background:new 0 0 512 512;" xml:space="preserve">
<g>
	
		<linearGradient id="SVGID_1_" gradientUnits="userSpaceOnUse" x1="-33.0663" y1="629.4911" x2="-33.0663" y2="574.8381" gradientTransform="matrix(8.2581 0 0 -8.2581 355.6446 5253.5176)">
		<stop  offset="0" style="stop-color:#FC5C7D"/>
		<stop  offset="0.129" style="stop-color:#F35E85"/>
		<stop  offset="0.343" style="stop-color:#D9659B"/>
		<stop  offset="0.616" style="stop-color:#B070BF"/>
		<stop  offset="0.934" style="stop-color:#777FF0"/>
		<stop  offset="1" style="stop-color:#6A82FB"/>
	</linearGradient>
	<rect x="74.323" y="82.581" style="fill:url(#SVGID_1_);" width="16.516" height="16.516"/>
	
		<linearGradient id="SVGID_2_" gradientUnits="userSpaceOnUse" x1="-29.0663" y1="629.4911" x2="-29.0663" y2="574.8381" gradientTransform="matrix(8.2581 0 0 -8.2581 355.6446 5253.5176)">
		<stop  offset="0" style="stop-color:#FC5C7D"/>
		<stop  offset="0.129" style="stop-color:#F35E85"/>
		<stop  offset="0.343" style="stop-color:#D9659B"/>
		<stop  offset="0.616" style="stop-color:#B070BF"/>
		<stop  offset="0.934" style="stop-color:#777FF0"/>
		<stop  offset="1" style="stop-color:#6A82FB"/>
	</linearGradient>
	<rect x="107.355" y="82.581" style="fill:url(#SVGID_2_);" width="16.516" height="16.516"/>
	
		<linearGradient id="SVGID_3_" gradientUnits="userSpaceOnUse" x1="-25.0663" y1="629.4911" x2="-25.0663" y2="574.8381" gradientTransform="matrix(8.2581 0 0 -8.2581 355.6446 5253.5176)">
		<stop  offset="0" style="stop-color:#FC5C7D"/>
		<stop  offset="0.129" style="stop-color:#F35E85"/>
		<stop  offset="0.343" style="stop-color:#D9659B"/>
		<stop  offset="0.616" style="stop-color:#B070BF"/>
		<stop  offset="0.934" style="stop-color:#777FF0"/>
		<stop  offset="1" style="stop-color:#6A82FB"/>
	</linearGradient>
	<rect x="140.387" y="82.581" style="fill:url(#SVGID_3_);" width="16.516" height="16.516"/>
	
		<linearGradient id="SVGID_4_" gradientUnits="userSpaceOnUse" x1="-24.0663" y1="629.4911" x2="-24.0663" y2="574.8381" gradientTransform="matrix(8.2581 0 0 -8.2581 355.6446 5253.5176)">
		<stop  offset="0" style="stop-color:#FC5C7D"/>
		<stop  offset="0.129" style="stop-color:#F35E85"/>
		<stop  offset="0.343" style="stop-color:#D9659B"/>
		<stop  offset="0.616" style="stop-color:#B070BF"/>
		<stop  offset="0.934" style="stop-color:#777FF0"/>
		<stop  offset="1" style="stop-color:#6A82FB"/>
	</linearGradient>
	<path style="fill:url(#SVGID_4_);" d="M222.968,305.549h-16.516v-16.516c0-27.367-22.181-49.548-49.548-49.548
		s-49.548,22.181-49.548,49.548v16.516H90.839c-4.558,0-8.258,3.7-8.258,8.258v115.613c0,4.558,3.7,8.258,8.258,8.258h132.129
		c4.558,0,8.258-3.7,8.258-8.258V313.807C231.226,309.248,227.526,305.549,222.968,305.549z M123.871,289.032
		c0-18.242,14.79-33.032,33.032-33.032s33.032,14.79,33.032,33.032v16.516h-66.065V289.032z M214.71,421.161H99.097v-99.097H214.71
		V421.161z"/>
	
		<linearGradient id="SVGID_5_" gradientUnits="userSpaceOnUse" x1="-24.066" y1="629.4911" x2="-24.066" y2="574.8381" gradientTransform="matrix(8.2581 0 0 -8.2581 355.6446 5253.5176)">
		<stop  offset="0" style="stop-color:#FC5C7D"/>
		<stop  offset="0.129" style="stop-color:#F35E85"/>
		<stop  offset="0.343" style="stop-color:#D9659B"/>
		<stop  offset="0.616" style="stop-color:#B070BF"/>
		<stop  offset="0.934" style="stop-color:#777FF0"/>
		<stop  offset="1" style="stop-color:#6A82FB"/>
	</linearGradient>
	<path style="fill:url(#SVGID_5_);" d="M156.903,338.581c-13.651-0.025-24.741,11.016-24.766,24.667
		c-0.017,10.504,6.598,19.877,16.508,23.362v18.036h16.516V386.61c12.874-4.534,19.638-18.647,15.104-31.521
		C176.772,345.179,167.408,338.564,156.903,338.581z M156.903,371.613c-4.558,0-8.258-3.7-8.258-8.258s3.7-8.258,8.258-8.258
		c4.558,0,8.258,3.7,8.258,8.258S161.462,371.613,156.903,371.613z"/>
	
		<linearGradient id="SVGID_6_" gradientUnits="userSpaceOnUse" x1="-10.0665" y1="629.4911" x2="-10.0665" y2="574.8381" gradientTransform="matrix(8.2581 0 0 -8.2581 355.6446 5253.5176)">
		<stop  offset="0" style="stop-color:#FC5C7D"/>
		<stop  offset="0.129" style="stop-color:#F35E85"/>
		<stop  offset="0.343" style="stop-color:#D9659B"/>
		<stop  offset="0.616" style="stop-color:#B070BF"/>
		<stop  offset="0.934" style="stop-color:#777FF0"/>
		<stop  offset="1" style="stop-color:#6A82FB"/>
	</linearGradient>
	<path style="fill:url(#SVGID_6_);" d="M379.871,0c-38.92,0.033-75.545,18.391-98.866,49.548H74.323
		c-18.242,0-33.032,14.79-33.032,33.032v363.355c0,18.242,14.79,33.032,33.032,33.032h363.355c18.242,0,33.032-14.79,33.032-33.032
		v-238.13c46.468-50.06,43.553-128.314-6.516-174.782C441.278,11.751,411.144-0.049,379.871,0z M74.323,66.065h196.079
		c-8.109,15.343-12.874,32.231-13.981,49.548H57.807V82.581C57.807,73.456,65.197,66.065,74.323,66.065z M454.194,445.936
		c0,9.125-7.391,16.516-16.516,16.516H74.323c-9.125,0-16.516-7.391-16.516-16.516V132.129h198.615
		c2.403,35.914,20.34,68.996,49.127,90.607v0.231h0.314c43.809,33.032,104.209,33.032,148.018,0h0.314V445.936z M355.097,82.581
		c0-13.684,11.091-24.774,24.774-24.774s24.774,11.091,24.774,24.774s-11.091,24.774-24.774,24.774S355.097,96.264,355.097,82.581z
		 M355.097,123.871h49.548c18.242,0,33.032,14.79,33.032,33.032v57.286c-5.236,3.402-10.76,6.342-16.516,8.778v-57.806h-16.516
		v63.067c-16.277,3.997-33.272,3.997-49.548,0v-63.067h-16.516v57.806c-5.756-2.428-11.281-5.359-16.516-8.754v-57.311
		C322.065,138.661,336.855,123.871,355.097,123.871z M454.194,201.158v-44.255c-0.033-24.436-17.87-45.205-42.025-48.913
		c5.781-7.209,8.952-16.169,8.993-25.41c0-22.801-18.49-41.29-41.29-41.29s-41.29,18.49-41.29,41.29
		c0.041,9.241,3.212,18.201,8.993,25.41c-24.155,3.708-41.992,24.477-42.025,48.913v44.255
		c-42.785-41.051-44.189-109.006-3.146-151.791c41.051-42.785,109.006-44.189,151.791-3.146s44.189,109.006,3.146,151.791
		C456.316,199.086,455.267,200.134,454.194,201.158z"/>
	
		<linearGradient id="SVGID_7_" gradientUnits="userSpaceOnUse" x1="-3.5663" y1="629.4911" x2="-3.5663" y2="574.8381" gradientTransform="matrix(8.2581 0 0 -8.2581 355.6446 5253.5176)">
		<stop  offset="0" style="stop-color:#FC5C7D"/>
		<stop  offset="0.129" style="stop-color:#F35E85"/>
		<stop  offset="0.343" style="stop-color:#D9659B"/>
		<stop  offset="0.616" style="stop-color:#B070BF"/>
		<stop  offset="0.934" style="stop-color:#777FF0"/>
		<stop  offset="1" style="stop-color:#6A82FB"/>
	</linearGradient>
	<rect x="256" y="421.161" style="fill:url(#SVGID_7_);" width="140.387" height="16.516"/>
	
		<linearGradient id="SVGID_8_" gradientUnits="userSpaceOnUse" x1="-1.5663" y1="629.4911" x2="-1.5663" y2="574.8381" gradientTransform="matrix(8.2581 0 0 -8.2581 355.6446 5253.5176)">
		<stop  offset="0" style="stop-color:#FC5C7D"/>
		<stop  offset="0.129" style="stop-color:#F35E85"/>
		<stop  offset="0.343" style="stop-color:#D9659B"/>
		<stop  offset="0.616" style="stop-color:#B070BF"/>
		<stop  offset="0.934" style="stop-color:#777FF0"/>
		<stop  offset="1" style="stop-color:#6A82FB"/>
	</linearGradient>
	<rect x="256" y="388.129" style="fill:url(#SVGID_8_);" width="173.419" height="16.516"/>
	
		<linearGradient id="SVGID_9_" gradientUnits="userSpaceOnUse" x1="-1.5663" y1="629.4911" x2="-1.5663" y2="574.8381" gradientTransform="matrix(8.2581 0 0 -8.2581 355.6446 5253.5176)">
		<stop  offset="0" style="stop-color:#FC5C7D"/>
		<stop  offset="0.129" style="stop-color:#F35E85"/>
		<stop  offset="0.343" style="stop-color:#D9659B"/>
		<stop  offset="0.616" style="stop-color:#B070BF"/>
		<stop  offset="0.934" style="stop-color:#777FF0"/>
		<stop  offset="1" style="stop-color:#6A82FB"/>
	</linearGradient>
	<rect x="256" y="355.097" style="fill:url(#SVGID_9_);" width="173.419" height="16.516"/>
	
		<linearGradient id="SVGID_10_" gradientUnits="userSpaceOnUse" x1="-1.5663" y1="629.4911" x2="-1.5663" y2="574.8381" gradientTransform="matrix(8.2581 0 0 -8.2581 355.6446 5253.5176)">
		<stop  offset="0" style="stop-color:#FC5C7D"/>
		<stop  offset="0.129" style="stop-color:#F35E85"/>
		<stop  offset="0.343" style="stop-color:#D9659B"/>
		<stop  offset="0.616" style="stop-color:#B070BF"/>
		<stop  offset="0.934" style="stop-color:#777FF0"/>
		<stop  offset="1" style="stop-color:#6A82FB"/>
	</linearGradient>
	<rect x="256" y="322.065" style="fill:url(#SVGID_10_);" width="173.419" height="16.516"/>
	
		<linearGradient id="SVGID_11_" gradientUnits="userSpaceOnUse" x1="1.4337" y1="629.4911" x2="1.4337" y2="574.8381" gradientTransform="matrix(8.2581 0 0 -8.2581 355.6446 5253.5176)">
		<stop  offset="0" style="stop-color:#FC5C7D"/>
		<stop  offset="0.129" style="stop-color:#F35E85"/>
		<stop  offset="0.343" style="stop-color:#D9659B"/>
		<stop  offset="0.616" style="stop-color:#B070BF"/>
		<stop  offset="0.934" style="stop-color:#777FF0"/>
		<stop  offset="1" style="stop-color:#6A82FB"/>
	</linearGradient>
	<rect x="305.548" y="289.032" style="fill:url(#SVGID_11_);" width="123.871" height="16.516"/>
	
		<linearGradient id="SVGID_12_" gradientUnits="userSpaceOnUse" x1="-9.0663" y1="629.4911" x2="-9.0663" y2="574.8381" gradientTransform="matrix(8.2581 0 0 -8.2581 355.6446 5253.5176)">
		<stop  offset="0" style="stop-color:#FC5C7D"/>
		<stop  offset="0.129" style="stop-color:#F35E85"/>
		<stop  offset="0.343" style="stop-color:#D9659B"/>
		<stop  offset="0.616" style="stop-color:#B070BF"/>
		<stop  offset="0.934" style="stop-color:#777FF0"/>
		<stop  offset="1" style="stop-color:#6A82FB"/>
	</linearGradient>
	<rect x="272.516" y="289.032" style="fill:url(#SVGID_12_);" width="16.516" height="16.516"/>
	
		<linearGradient id="SVGID_13_" gradientUnits="userSpaceOnUse" x1="-32.0663" y1="629.4911" x2="-32.0663" y2="574.8381" gradientTransform="matrix(8.2581 0 0 -8.2581 355.6446 5253.5176)">
		<stop  offset="0" style="stop-color:#FC5C7D"/>
		<stop  offset="0.129" style="stop-color:#F35E85"/>
		<stop  offset="0.343" style="stop-color:#D9659B"/>
		<stop  offset="0.616" style="stop-color:#B070BF"/>
		<stop  offset="0.934" style="stop-color:#777FF0"/>
		<stop  offset="1" style="stop-color:#6A82FB"/>
	</linearGradient>
	<rect x="82.581" y="156.903" style="fill:url(#SVGID_13_);" width="16.516" height="16.516"/>
	
		<linearGradient id="SVGID_14_" gradientUnits="userSpaceOnUse" x1="-22.0663" y1="629.4911" x2="-22.0663" y2="574.8381" gradientTransform="matrix(8.2581 0 0 -8.2581 355.6446 5253.5176)">
		<stop  offset="0" style="stop-color:#FC5C7D"/>
		<stop  offset="0.129" style="stop-color:#F35E85"/>
		<stop  offset="0.343" style="stop-color:#D9659B"/>
		<stop  offset="0.616" style="stop-color:#B070BF"/>
		<stop  offset="0.934" style="stop-color:#777FF0"/>
		<stop  offset="1" style="stop-color:#6A82FB"/>
	</linearGradient>
	<rect x="115.613" y="156.903" style="fill:url(#SVGID_14_);" width="115.613" height="16.516"/>
	
		<linearGradient id="SVGID_15_" gradientUnits="userSpaceOnUse" x1="-24.0663" y1="629.4911" x2="-24.0663" y2="574.8381" gradientTransform="matrix(8.2581 0 0 -8.2581 355.6446 5253.5176)">
		<stop  offset="0" style="stop-color:#FC5C7D"/>
		<stop  offset="0.129" style="stop-color:#F35E85"/>
		<stop  offset="0.343" style="stop-color:#D9659B"/>
		<stop  offset="0.616" style="stop-color:#B070BF"/>
		<stop  offset="0.934" style="stop-color:#777FF0"/>
		<stop  offset="1" style="stop-color:#6A82FB"/>
	</linearGradient>
	<rect x="82.581" y="189.936" style="fill:url(#SVGID_15_);" width="148.645" height="16.516"/>
	
		<linearGradient id="SVGID_16_" gradientUnits="userSpaceOnUse" x1="7.9337" y1="629.4911" x2="7.9337" y2="574.8381" gradientTransform="matrix(8.2581 0 0 -8.2581 355.6446 5253.5176)">
		<stop  offset="0" style="stop-color:#FC5C7D"/>
		<stop  offset="0.129" style="stop-color:#F35E85"/>
		<stop  offset="0.343" style="stop-color:#D9659B"/>
		<stop  offset="0.616" style="stop-color:#B070BF"/>
		<stop  offset="0.934" style="stop-color:#777FF0"/>
		<stop  offset="1" style="stop-color:#6A82FB"/>
	</linearGradient>
	<path style="fill:url(#SVGID_16_);" d="M487.226,454.194c-0.025,22.792-18.498,41.266-41.29,41.29H338.581V512h107.355
		c31.909-0.033,57.773-25.897,57.806-57.806v-33.032h-16.516V454.194z"/>
	
		<linearGradient id="SVGID_17_" gradientUnits="userSpaceOnUse" x1="-5.0663" y1="629.4911" x2="-5.0663" y2="574.8381" gradientTransform="matrix(8.2581 0 0 -8.2581 355.6446 5253.5176)">
		<stop  offset="0" style="stop-color:#FC5C7D"/>
		<stop  offset="0.129" style="stop-color:#F35E85"/>
		<stop  offset="0.343" style="stop-color:#D9659B"/>
		<stop  offset="0.616" style="stop-color:#B070BF"/>
		<stop  offset="0.934" style="stop-color:#777FF0"/>
		<stop  offset="1" style="stop-color:#6A82FB"/>
	</linearGradient>
	<rect x="305.548" y="495.484" style="fill:url(#SVGID_17_);" width="16.516" height="16.516"/>
	
		<linearGradient id="SVGID_18_" gradientUnits="userSpaceOnUse" x1="-41.0663" y1="629.4911" x2="-41.0663" y2="574.8381" gradientTransform="matrix(8.2581 0 0 -8.2581 355.6446 5253.5176)">
		<stop  offset="0" style="stop-color:#FC5C7D"/>
		<stop  offset="0.129" style="stop-color:#F35E85"/>
		<stop  offset="0.343" style="stop-color:#D9659B"/>
		<stop  offset="0.616" style="stop-color:#B070BF"/>
		<stop  offset="0.934" style="stop-color:#777FF0"/>
		<stop  offset="1" style="stop-color:#6A82FB"/>
	</linearGradient>
	<rect x="8.258" y="74.323" style="fill:url(#SVGID_18_);" width="16.516" height="16.516"/>
	
		<linearGradient id="SVGID_19_" gradientUnits="userSpaceOnUse" x1="-41.0663" y1="629.4911" x2="-41.0663" y2="574.8381" gradientTransform="matrix(8.2581 0 0 -8.2581 355.6446 5253.5176)">
		<stop  offset="0" style="stop-color:#FC5C7D"/>
		<stop  offset="0.129" style="stop-color:#F35E85"/>
		<stop  offset="0.343" style="stop-color:#D9659B"/>
		<stop  offset="0.616" style="stop-color:#B070BF"/>
		<stop  offset="0.934" style="stop-color:#777FF0"/>
		<stop  offset="1" style="stop-color:#6A82FB"/>
	</linearGradient>
	<rect x="8.258" y="107.355" style="fill:url(#SVGID_19_);" width="16.516" height="156.903"/>
</g>
<g>
</g>
<g>
</g>
<g>
</g>
<g>
</g>
<g>
</g>
<g>
</g>
<g>
</g>
<g>
</g>
<g>
</g>
<g>
</g>
<g>
</g>
<g>
</g>
<g>
</g>
<g>
</g>
<g>
</g>
</svg>
