<?xml version="1.0" encoding="iso-8859-1"?>
<!-- Generator: Adobe Illustrator 19.0.0, SVG Export Plug-In . SVG Version: 6.00 Build 0)  -->
<svg version="1.1" id="Capa_1" xmlns="http://www.w3.org/2000/svg" xmlns:xlink="http://www.w3.org/1999/xlink" x="0px" y="0px"
	 viewBox="0 0 512 512" style="enable-background:new 0 0 512 512;" xml:space="preserve">
<g>
	
		<linearGradient id="SVGID_1_" gradientUnits="userSpaceOnUse" x1="-13.2578" y1="636.3019" x2="-13.2578" y2="572.481" gradientTransform="matrix(8.5333 0 0 -8.5333 369.1334 5433.2671)">
		<stop  offset="0" style="stop-color:#FC5C7D"/>
		<stop  offset="0.129" style="stop-color:#F35E85"/>
		<stop  offset="0.343" style="stop-color:#D9659B"/>
		<stop  offset="0.616" style="stop-color:#B070BF"/>
		<stop  offset="0.934" style="stop-color:#777FF0"/>
		<stop  offset="1" style="stop-color:#6A82FB"/>
	</linearGradient>
	<path style="fill:url(#SVGID_1_);" d="M256,273.067c23.561,0,42.667-19.106,42.667-42.667S279.561,187.733,256,187.733
		s-42.667,19.106-42.667,42.667C213.359,253.952,232.448,273.041,256,273.067z M256,204.8c14.14,0,25.6,11.46,25.6,25.6
		c0,14.14-11.46,25.6-25.6,25.6c-14.14,0-25.6-11.46-25.6-25.6l0,0C230.4,216.26,241.86,204.8,256,204.8z"/>
	
		<linearGradient id="SVGID_2_" gradientUnits="userSpaceOnUse" x1="-38.7578" y1="636.3019" x2="-38.7578" y2="572.481" gradientTransform="matrix(8.5333 0 0 -8.5333 369.1334 5433.2671)">
		<stop  offset="0" style="stop-color:#FC5C7D"/>
		<stop  offset="0.129" style="stop-color:#F35E85"/>
		<stop  offset="0.343" style="stop-color:#D9659B"/>
		<stop  offset="0.616" style="stop-color:#B070BF"/>
		<stop  offset="0.934" style="stop-color:#777FF0"/>
		<stop  offset="1" style="stop-color:#6A82FB"/>
	</linearGradient>
	<path style="fill:url(#SVGID_2_);" d="M25.6,42.667c0,4.71,3.823,8.533,8.533,8.533c14.14,0,25.6,11.46,25.6,25.6H76.8
		c-0.026-20.54-14.66-38.153-34.85-41.95C38.153,14.66,20.54,0.026,0,0v17.067C14.14,17.067,25.6,28.527,25.6,42.667z"/>
	
		<linearGradient id="SVGID_3_" gradientUnits="userSpaceOnUse" x1="-29.2578" y1="636.3019" x2="-29.2578" y2="572.481" gradientTransform="matrix(8.5333 0 0 -8.5333 369.1334 5433.2671)">
		<stop  offset="0" style="stop-color:#FC5C7D"/>
		<stop  offset="0.129" style="stop-color:#F35E85"/>
		<stop  offset="0.343" style="stop-color:#D9659B"/>
		<stop  offset="0.616" style="stop-color:#B070BF"/>
		<stop  offset="0.934" style="stop-color:#777FF0"/>
		<stop  offset="1" style="stop-color:#6A82FB"/>
	</linearGradient>
	<rect x="110.933" y="17.067" style="fill:url(#SVGID_3_);" width="17.067" height="17.067"/>
	
		<linearGradient id="SVGID_4_" gradientUnits="userSpaceOnUse" x1="-22.2578" y1="636.3019" x2="-22.2578" y2="572.481" gradientTransform="matrix(8.5333 0 0 -8.5333 369.1334 5433.2671)">
		<stop  offset="0" style="stop-color:#FC5C7D"/>
		<stop  offset="0.129" style="stop-color:#F35E85"/>
		<stop  offset="0.343" style="stop-color:#D9659B"/>
		<stop  offset="0.616" style="stop-color:#B070BF"/>
		<stop  offset="0.934" style="stop-color:#777FF0"/>
		<stop  offset="1" style="stop-color:#6A82FB"/>
	</linearGradient>
	<rect x="170.667" y="85.333" style="fill:url(#SVGID_4_);" width="17.067" height="17.067"/>
	
		<linearGradient id="SVGID_5_" gradientUnits="userSpaceOnUse" x1="-31.2578" y1="636.3019" x2="-31.2578" y2="572.481" gradientTransform="matrix(8.5333 0 0 -8.5333 369.1334 5433.2671)">
		<stop  offset="0" style="stop-color:#FC5C7D"/>
		<stop  offset="0.129" style="stop-color:#F35E85"/>
		<stop  offset="0.343" style="stop-color:#D9659B"/>
		<stop  offset="0.616" style="stop-color:#B070BF"/>
		<stop  offset="0.934" style="stop-color:#777FF0"/>
		<stop  offset="1" style="stop-color:#6A82FB"/>
	</linearGradient>
	<rect x="93.867" y="179.2" style="fill:url(#SVGID_5_);" width="17.067" height="17.067"/>
	
		<linearGradient id="SVGID_6_" gradientUnits="userSpaceOnUse" x1="-40.2578" y1="636.3019" x2="-40.2578" y2="572.481" gradientTransform="matrix(8.5333 0 0 -8.5333 369.1334 5433.2671)">
		<stop  offset="0" style="stop-color:#FC5C7D"/>
		<stop  offset="0.129" style="stop-color:#F35E85"/>
		<stop  offset="0.343" style="stop-color:#D9659B"/>
		<stop  offset="0.616" style="stop-color:#B070BF"/>
		<stop  offset="0.934" style="stop-color:#777FF0"/>
		<stop  offset="1" style="stop-color:#6A82FB"/>
	</linearGradient>
	<rect x="17.067" y="119.467" style="fill:url(#SVGID_6_);" width="17.067" height="17.067"/>
	
		<linearGradient id="SVGID_7_" gradientUnits="userSpaceOnUse" x1="12.2422" y1="636.3019" x2="12.2422" y2="572.481" gradientTransform="matrix(8.5333 0 0 -8.5333 369.1334 5433.2671)">
		<stop  offset="0" style="stop-color:#FC5C7D"/>
		<stop  offset="0.129" style="stop-color:#F35E85"/>
		<stop  offset="0.343" style="stop-color:#D9659B"/>
		<stop  offset="0.616" style="stop-color:#B070BF"/>
		<stop  offset="0.934" style="stop-color:#777FF0"/>
		<stop  offset="1" style="stop-color:#6A82FB"/>
	</linearGradient>
	<path style="fill:url(#SVGID_7_);" d="M470.05,68.983c-20.19,3.797-34.825,21.41-34.85,41.95h17.067c0-14.14,11.46-25.6,25.6-25.6
		c4.71,0,8.533-3.823,8.533-8.533c0-14.14,11.46-25.6,25.6-25.6V34.133C491.46,34.159,473.847,48.794,470.05,68.983z"/>
	
		<linearGradient id="SVGID_8_" gradientUnits="userSpaceOnUse" x1="3.7422" y1="636.3019" x2="3.7422" y2="572.481" gradientTransform="matrix(8.5333 0 0 -8.5333 369.1334 5433.2671)">
		<stop  offset="0" style="stop-color:#FC5C7D"/>
		<stop  offset="0.129" style="stop-color:#F35E85"/>
		<stop  offset="0.343" style="stop-color:#D9659B"/>
		<stop  offset="0.616" style="stop-color:#B070BF"/>
		<stop  offset="0.934" style="stop-color:#777FF0"/>
		<stop  offset="1" style="stop-color:#6A82FB"/>
	</linearGradient>
	<rect x="392.533" style="fill:url(#SVGID_8_);" width="17.067" height="17.067"/>
	
		<linearGradient id="SVGID_9_" gradientUnits="userSpaceOnUse" x1="-2.2578" y1="636.3019" x2="-2.2578" y2="572.481" gradientTransform="matrix(8.5333 0 0 -8.5333 369.1334 5433.2671)">
		<stop  offset="0" style="stop-color:#FC5C7D"/>
		<stop  offset="0.129" style="stop-color:#F35E85"/>
		<stop  offset="0.343" style="stop-color:#D9659B"/>
		<stop  offset="0.616" style="stop-color:#B070BF"/>
		<stop  offset="0.934" style="stop-color:#777FF0"/>
		<stop  offset="1" style="stop-color:#6A82FB"/>
	</linearGradient>
	<rect x="341.333" y="85.333" style="fill:url(#SVGID_9_);" width="17.067" height="17.067"/>
	
		<linearGradient id="SVGID_10_" gradientUnits="userSpaceOnUse" x1="4.7422" y1="636.3019" x2="4.7422" y2="572.481" gradientTransform="matrix(8.5333 0 0 -8.5333 369.1334 5433.2671)">
		<stop  offset="0" style="stop-color:#FC5C7D"/>
		<stop  offset="0.129" style="stop-color:#F35E85"/>
		<stop  offset="0.343" style="stop-color:#D9659B"/>
		<stop  offset="0.616" style="stop-color:#B070BF"/>
		<stop  offset="0.934" style="stop-color:#777FF0"/>
		<stop  offset="1" style="stop-color:#6A82FB"/>
	</linearGradient>
	<rect x="401.067" y="145.067" style="fill:url(#SVGID_10_);" width="17.067" height="17.067"/>
	
		<linearGradient id="SVGID_11_" gradientUnits="userSpaceOnUse" x1="12.7422" y1="636.3019" x2="12.7422" y2="572.481" gradientTransform="matrix(8.5333 0 0 -8.5333 369.1334 5433.2671)">
		<stop  offset="0" style="stop-color:#FC5C7D"/>
		<stop  offset="0.129" style="stop-color:#F35E85"/>
		<stop  offset="0.343" style="stop-color:#D9659B"/>
		<stop  offset="0.616" style="stop-color:#B070BF"/>
		<stop  offset="0.934" style="stop-color:#777FF0"/>
		<stop  offset="1" style="stop-color:#6A82FB"/>
	</linearGradient>
	<rect x="469.333" y="187.733" style="fill:url(#SVGID_11_);" width="17.067" height="17.067"/>
	
		<linearGradient id="SVGID_12_" gradientUnits="userSpaceOnUse" x1="-35.2578" y1="636.3019" x2="-35.2578" y2="572.481" gradientTransform="matrix(8.5333 0 0 -8.5333 369.1334 5433.2671)">
		<stop  offset="0" style="stop-color:#FC5C7D"/>
		<stop  offset="0.129" style="stop-color:#F35E85"/>
		<stop  offset="0.343" style="stop-color:#D9659B"/>
		<stop  offset="0.616" style="stop-color:#B070BF"/>
		<stop  offset="0.934" style="stop-color:#777FF0"/>
		<stop  offset="1" style="stop-color:#6A82FB"/>
	</linearGradient>
	<path style="fill:url(#SVGID_12_);" d="M51.2,358.4h34.133c4.71,0,8.533-3.823,8.533-8.533v-34.133c0-4.71-3.823-8.533-8.533-8.533
		H51.2c-4.71,0-8.533,3.823-8.533,8.533v34.133C42.667,354.577,46.49,358.4,51.2,358.4z M59.733,324.267H76.8v17.067H59.733V324.267
		z"/>
	
		<linearGradient id="SVGID_13_" gradientUnits="userSpaceOnUse" x1="-35.2578" y1="636.3019" x2="-35.2578" y2="572.481" gradientTransform="matrix(8.5333 0 0 -8.5333 369.1334 5433.2671)">
		<stop  offset="0" style="stop-color:#FC5C7D"/>
		<stop  offset="0.129" style="stop-color:#F35E85"/>
		<stop  offset="0.343" style="stop-color:#D9659B"/>
		<stop  offset="0.616" style="stop-color:#B070BF"/>
		<stop  offset="0.934" style="stop-color:#777FF0"/>
		<stop  offset="1" style="stop-color:#6A82FB"/>
	</linearGradient>
	<path style="fill:url(#SVGID_13_);" d="M51.2,426.667h34.133c4.71,0,8.533-3.823,8.533-8.533V384c0-4.71-3.823-8.533-8.533-8.533
		H51.2c-4.71,0-8.533,3.823-8.533,8.533v34.133C42.667,422.844,46.49,426.667,51.2,426.667z M59.733,392.533H76.8V409.6H59.733
		V392.533z"/>
	
		<linearGradient id="SVGID_14_" gradientUnits="userSpaceOnUse" x1="-17.2578" y1="636.3019" x2="-17.2578" y2="572.481" gradientTransform="matrix(8.5333 0 0 -8.5333 369.1334 5433.2671)">
		<stop  offset="0" style="stop-color:#FC5C7D"/>
		<stop  offset="0.129" style="stop-color:#F35E85"/>
		<stop  offset="0.343" style="stop-color:#D9659B"/>
		<stop  offset="0.616" style="stop-color:#B070BF"/>
		<stop  offset="0.934" style="stop-color:#777FF0"/>
		<stop  offset="1" style="stop-color:#6A82FB"/>
	</linearGradient>
	<path style="fill:url(#SVGID_14_);" d="M204.8,341.333h34.133c4.71,0,8.533-3.823,8.533-8.533v-34.133
		c0-4.71-3.823-8.533-8.533-8.533H204.8c-4.71,0-8.533,3.823-8.533,8.533V332.8C196.267,337.51,200.09,341.333,204.8,341.333z
		 M213.333,307.2H230.4v17.067h-17.067V307.2z"/>
	
		<linearGradient id="SVGID_15_" gradientUnits="userSpaceOnUse" x1="-9.2578" y1="636.3019" x2="-9.2578" y2="572.481" gradientTransform="matrix(8.5333 0 0 -8.5333 369.1334 5433.2671)">
		<stop  offset="0" style="stop-color:#FC5C7D"/>
		<stop  offset="0.129" style="stop-color:#F35E85"/>
		<stop  offset="0.343" style="stop-color:#D9659B"/>
		<stop  offset="0.616" style="stop-color:#B070BF"/>
		<stop  offset="0.934" style="stop-color:#777FF0"/>
		<stop  offset="1" style="stop-color:#6A82FB"/>
	</linearGradient>
	<path style="fill:url(#SVGID_15_);" d="M264.533,298.667V332.8c0,4.71,3.823,8.533,8.533,8.533H307.2
		c4.71,0,8.533-3.823,8.533-8.533v-34.133c0-4.71-3.823-8.533-8.533-8.533h-34.133C268.356,290.133,264.533,293.956,264.533,298.667
		z M281.6,307.2h17.067v17.067H281.6V307.2z"/>
	
		<linearGradient id="SVGID_16_" gradientUnits="userSpaceOnUse" x1="-17.2578" y1="636.3019" x2="-17.2578" y2="572.481" gradientTransform="matrix(8.5333 0 0 -8.5333 369.1334 5433.2671)">
		<stop  offset="0" style="stop-color:#FC5C7D"/>
		<stop  offset="0.129" style="stop-color:#F35E85"/>
		<stop  offset="0.343" style="stop-color:#D9659B"/>
		<stop  offset="0.616" style="stop-color:#B070BF"/>
		<stop  offset="0.934" style="stop-color:#777FF0"/>
		<stop  offset="1" style="stop-color:#6A82FB"/>
	</linearGradient>
	<path style="fill:url(#SVGID_16_);" d="M238.933,409.6c4.71,0,8.533-3.823,8.533-8.533v-34.133c0-4.71-3.823-8.533-8.533-8.533
		H204.8c-4.71,0-8.533,3.823-8.533,8.533v34.133c0,4.71,3.823,8.533,8.533,8.533H238.933z M213.333,375.467H230.4v17.067h-17.067
		V375.467z"/>
	
		<linearGradient id="SVGID_17_" gradientUnits="userSpaceOnUse" x1="-9.2578" y1="636.3019" x2="-9.2578" y2="572.481" gradientTransform="matrix(8.5333 0 0 -8.5333 369.1334 5433.2671)">
		<stop  offset="0" style="stop-color:#FC5C7D"/>
		<stop  offset="0.129" style="stop-color:#F35E85"/>
		<stop  offset="0.343" style="stop-color:#D9659B"/>
		<stop  offset="0.616" style="stop-color:#B070BF"/>
		<stop  offset="0.934" style="stop-color:#777FF0"/>
		<stop  offset="1" style="stop-color:#6A82FB"/>
	</linearGradient>
	<path style="fill:url(#SVGID_17_);" d="M307.2,358.4h-34.133c-4.71,0-8.533,3.823-8.533,8.533v34.133
		c0,4.71,3.823,8.533,8.533,8.533H307.2c4.71,0,8.533-3.823,8.533-8.533v-34.133C315.733,362.223,311.91,358.4,307.2,358.4z
		 M298.667,392.533H281.6v-17.067h17.067V392.533z"/>
	
		<linearGradient id="SVGID_18_" gradientUnits="userSpaceOnUse" x1="-13.2578" y1="636.3019" x2="-13.2578" y2="572.481" gradientTransform="matrix(8.5333 0 0 -8.5333 369.1334 5433.2671)">
		<stop  offset="0" style="stop-color:#FC5C7D"/>
		<stop  offset="0.129" style="stop-color:#F35E85"/>
		<stop  offset="0.343" style="stop-color:#D9659B"/>
		<stop  offset="0.616" style="stop-color:#B070BF"/>
		<stop  offset="0.934" style="stop-color:#777FF0"/>
		<stop  offset="1" style="stop-color:#6A82FB"/>
	</linearGradient>
	<rect x="247.467" y="221.867" style="fill:url(#SVGID_18_);" width="17.067" height="17.067"/>
	
		<linearGradient id="SVGID_19_" gradientUnits="userSpaceOnUse" x1="-13.2563" y1="636.3019" x2="-13.2563" y2="572.481" gradientTransform="matrix(8.5333 0 0 -8.5333 369.1334 5433.2671)">
		<stop  offset="0" style="stop-color:#FC5C7D"/>
		<stop  offset="0.129" style="stop-color:#F35E85"/>
		<stop  offset="0.343" style="stop-color:#D9659B"/>
		<stop  offset="0.616" style="stop-color:#B070BF"/>
		<stop  offset="0.934" style="stop-color:#777FF0"/>
		<stop  offset="1" style="stop-color:#6A82FB"/>
	</linearGradient>
	<path style="fill:url(#SVGID_19_);" d="M502.903,278.818c-0.077-0.273-0.171-0.538-0.282-0.802
		c-0.401-0.896-0.956-1.707-1.63-2.415l0,0l-51.2-51.2c-1.604-1.621-3.78-2.534-6.059-2.534h-93.867v-59.733
		c-0.026-2.577-1.237-4.992-3.277-6.562l0.077-0.102l-82.133-65.707V51.2h51.2c4.71,0,8.533-3.823,8.533-8.533V8.533
		c0-4.71-3.823-8.533-8.533-8.533H256c-4.71,0-8.533,3.823-8.533,8.533v81.229l-82.133,65.707l0.077,0.102
		c-2.039,1.57-3.251,3.985-3.277,6.562v59.733H68.267c-2.261,0-4.437,0.896-6.033,2.5l-51.2,51.2l0,0
		c-0.674,0.708-1.229,1.519-1.63,2.415c-0.111,0.265-0.205,0.529-0.282,0.802c-0.256,0.725-0.41,1.493-0.461,2.261
		c0,0.188-0.102,0.341-0.102,0.521v221.901c0,4.71,3.823,8.533,8.533,8.533h477.841c4.71,0,8.533-3.823,8.533-8.533V281.6
		c0-0.179-0.094-0.333-0.102-0.512C503.313,280.311,503.159,279.552,502.903,278.818z M486.4,443.733h-85.333v-153.6H486.4V443.733z
		 M474.334,273.067h-61.201l30.601-30.601L474.334,273.067z M423.134,238.933l-34.133,34.133h-39.134v-34.133H423.134z
		 M317.005,153.6H194.978L256,104.798L317.005,153.6z M264.533,17.067H307.2v17.067h-42.667V17.067z M162.133,273.067h-39.134
		l-34.133-34.133h73.267V273.067z M110.933,443.733H25.6v-153.6h85.333V443.733z M68.267,242.466l30.601,30.601H37.666
		L68.267,242.466z M25.6,460.8h85.333v34.133H25.6V460.8z M128,290.133h34.133v204.8H128V290.133z M179.2,281.6V170.667h153.6
		v324.267h-34.133V435.2c0-4.71-3.823-8.533-8.533-8.533h-68.267c-4.71,0-8.533,3.823-8.533,8.533v59.733H179.2V281.6z
		 M230.4,443.733h17.067v51.2H230.4V443.733z M264.533,494.933v-51.2H281.6v51.2H264.533z M349.867,290.133H384v204.8h-34.133
		V290.133z M401.067,494.933V460.8H486.4v34.133H401.067z"/>
	
		<linearGradient id="SVGID_20_" gradientUnits="userSpaceOnUse" x1="8.7422" y1="636.3019" x2="8.7422" y2="572.481" gradientTransform="matrix(8.5333 0 0 -8.5333 369.1334 5433.2671)">
		<stop  offset="0" style="stop-color:#FC5C7D"/>
		<stop  offset="0.129" style="stop-color:#F35E85"/>
		<stop  offset="0.343" style="stop-color:#D9659B"/>
		<stop  offset="0.616" style="stop-color:#B070BF"/>
		<stop  offset="0.934" style="stop-color:#777FF0"/>
		<stop  offset="1" style="stop-color:#6A82FB"/>
	</linearGradient>
	<path style="fill:url(#SVGID_20_);" d="M426.667,358.4H460.8c4.71,0,8.533-3.823,8.533-8.533v-34.133
		c0-4.71-3.823-8.533-8.533-8.533h-34.133c-4.71,0-8.533,3.823-8.533,8.533v34.133C418.133,354.577,421.956,358.4,426.667,358.4z
		 M435.2,324.267h17.067v17.067H435.2V324.267z"/>
	
		<linearGradient id="SVGID_21_" gradientUnits="userSpaceOnUse" x1="8.7422" y1="636.3019" x2="8.7422" y2="572.481" gradientTransform="matrix(8.5333 0 0 -8.5333 369.1334 5433.2671)">
		<stop  offset="0" style="stop-color:#FC5C7D"/>
		<stop  offset="0.129" style="stop-color:#F35E85"/>
		<stop  offset="0.343" style="stop-color:#D9659B"/>
		<stop  offset="0.616" style="stop-color:#B070BF"/>
		<stop  offset="0.934" style="stop-color:#777FF0"/>
		<stop  offset="1" style="stop-color:#6A82FB"/>
	</linearGradient>
	<path style="fill:url(#SVGID_21_);" d="M426.667,426.667H460.8c4.71,0,8.533-3.823,8.533-8.533V384c0-4.71-3.823-8.533-8.533-8.533
		h-34.133c-4.71,0-8.533,3.823-8.533,8.533v34.133C418.133,422.844,421.956,426.667,426.667,426.667z M435.2,392.533h17.067V409.6
		H435.2V392.533z"/>
</g>
<g>
</g>
<g>
</g>
<g>
</g>
<g>
</g>
<g>
</g>
<g>
</g>
<g>
</g>
<g>
</g>
<g>
</g>
<g>
</g>
<g>
</g>
<g>
</g>
<g>
</g>
<g>
</g>
<g>
</g>
</svg>
