<?xml version="1.0" encoding="iso-8859-1"?>
<!-- Generator: Adobe Illustrator 19.0.0, SVG Export Plug-In . SVG Version: 6.00 Build 0)  -->
<svg version="1.1" id="Capa_1" xmlns="http://www.w3.org/2000/svg" xmlns:xlink="http://www.w3.org/1999/xlink" x="0px" y="0px"
	 viewBox="0 0 512 512" style="enable-background:new 0 0 512 512;" xml:space="preserve">
<g>
	
		<linearGradient id="SVGID_1_" gradientUnits="userSpaceOnUse" x1="-13.2578" y1="659.1276" x2="-13.2578" y2="593.0876" gradientTransform="matrix(8.5333 0 0 -8.5333 369.1334 5595.9692)">
		<stop  offset="0" style="stop-color:#FC5C7D"/>
		<stop  offset="0.129" style="stop-color:#F35E85"/>
		<stop  offset="0.343" style="stop-color:#D9659B"/>
		<stop  offset="0.616" style="stop-color:#B070BF"/>
		<stop  offset="0.934" style="stop-color:#777FF0"/>
		<stop  offset="1" style="stop-color:#6A82FB"/>
	</linearGradient>
	<path style="fill:url(#SVGID_1_);" d="M503.467,93.867H460.8V25.6c0-4.71-3.823-8.533-8.533-8.533H384
		c-4.71,0-8.533,3.823-8.533,8.533v68.267h-307.2V59.733c0-4.71-3.823-8.533-8.533-8.533h-25.6C15.283,51.2,0,66.483,0,85.333V460.8
		c0,18.85,15.283,34.133,34.133,34.133h469.333c4.71,0,8.533-3.823,8.533-8.533v-384C512,97.69,508.177,93.867,503.467,93.867z
		 M392.533,34.133h51.2v25.6h-51.2V34.133z M426.667,247.467V76.8h17.067v170.667H426.667z M438.46,264.533l-20.326,40.653
		l-20.326-40.653H438.46z M392.533,76.8H409.6v170.667h-17.067V76.8z M17.067,85.333c0-9.429,7.637-17.067,17.067-17.067H51.2v358.4
		H34.133c-5.99-0.009-11.887,1.57-17.067,4.582V85.333z M494.933,477.867h-460.8c-9.429,0-17.067-7.637-17.067-17.067
		s7.637-17.067,17.067-17.067h25.6c4.71,0,8.533-3.823,8.533-8.533V110.933h307.2V256c0,0.111,0.06,0.205,0.06,0.316
		c0.034,0.896,0.213,1.783,0.529,2.62c0.077,0.188,0.119,0.375,0.196,0.563c0.077,0.188,0.06,0.213,0.111,0.316l34.133,68.267
		c2.099,4.215,7.228,5.931,11.443,3.831c1.655-0.828,3.004-2.167,3.831-3.831l34.133-68.267c0.051-0.102,0.06-0.213,0.111-0.316
		c0.051-0.102,0.119-0.375,0.196-0.563c0.316-0.845,0.495-1.732,0.529-2.628c0-0.102,0.06-0.196,0.06-0.307V110.933h34.133V477.867z
		"/>
	
		<linearGradient id="SVGID_2_" gradientUnits="userSpaceOnUse" x1="-10.2578" y1="659.1276" x2="-10.2578" y2="593.0876" gradientTransform="matrix(8.5333 0 0 -8.5333 369.1334 5595.9692)">
		<stop  offset="0" style="stop-color:#FC5C7D"/>
		<stop  offset="0.129" style="stop-color:#F35E85"/>
		<stop  offset="0.343" style="stop-color:#D9659B"/>
		<stop  offset="0.616" style="stop-color:#B070BF"/>
		<stop  offset="0.934" style="stop-color:#777FF0"/>
		<stop  offset="1" style="stop-color:#6A82FB"/>
	</linearGradient>
	<path style="fill:url(#SVGID_2_);" d="M452.267,375.467H110.933c-4.71,0-8.533,3.823-8.533,8.533v59.733
		c0,4.71,3.823,8.533,8.533,8.533h341.333c4.71,0,8.533-3.823,8.533-8.533V384C460.8,379.29,456.977,375.467,452.267,375.467z
		 M443.733,435.2H119.467v-42.667h17.067v25.6H153.6v-25.6h17.067V409.6h17.067v-17.067H204.8v25.6h17.067v-25.6h17.067V409.6H256
		v-17.067h17.067v25.6h17.067v-25.6H307.2V409.6h17.067v-17.067h17.067v25.6H358.4v-25.6h17.067V409.6h17.067v-17.067H409.6v25.6
		h17.067v-25.6h17.067V435.2z"/>
	
		<linearGradient id="SVGID_3_" gradientUnits="userSpaceOnUse" x1="-18.2578" y1="659.1276" x2="-18.2578" y2="593.0876" gradientTransform="matrix(8.5333 0 0 -8.5333 369.1334 5595.9692)">
		<stop  offset="0" style="stop-color:#FC5C7D"/>
		<stop  offset="0.129" style="stop-color:#F35E85"/>
		<stop  offset="0.343" style="stop-color:#D9659B"/>
		<stop  offset="0.616" style="stop-color:#B070BF"/>
		<stop  offset="0.934" style="stop-color:#777FF0"/>
		<stop  offset="1" style="stop-color:#6A82FB"/>
	</linearGradient>
	<path style="fill:url(#SVGID_3_);" d="M110.933,349.867h204.8c4.71,0,8.533-3.823,8.533-8.533c0-2.261-0.896-4.429-2.5-6.033
		l-204.8-204.8c-3.337-3.328-8.738-3.328-12.066,0c-1.604,1.604-2.5,3.772-2.5,6.033v204.8
		C102.4,346.044,106.223,349.867,110.933,349.867z M119.467,157.133L295.134,332.8H119.467V157.133z"/>
	
		<linearGradient id="SVGID_4_" gradientUnits="userSpaceOnUse" x1="-23.2578" y1="659.1276" x2="-23.2578" y2="593.0876" gradientTransform="matrix(8.5333 0 0 -8.5333 369.1334 5595.9692)">
		<stop  offset="0" style="stop-color:#FC5C7D"/>
		<stop  offset="0.129" style="stop-color:#F35E85"/>
		<stop  offset="0.343" style="stop-color:#D9659B"/>
		<stop  offset="0.616" style="stop-color:#B070BF"/>
		<stop  offset="0.934" style="stop-color:#777FF0"/>
		<stop  offset="1" style="stop-color:#6A82FB"/>
	</linearGradient>
	<path style="fill:url(#SVGID_4_);" d="M170.667,247.467c-18.85,0-34.133,15.283-34.133,34.133s15.283,34.133,34.133,34.133
		S204.8,300.45,204.8,281.6S189.517,247.467,170.667,247.467z M170.667,298.667c-9.429,0-17.067-7.637-17.067-17.067
		c0-9.429,7.637-17.067,17.067-17.067c9.429,0,17.067,7.637,17.067,17.067C187.733,291.029,180.096,298.667,170.667,298.667z"/>
	
		<linearGradient id="SVGID_5_" gradientUnits="userSpaceOnUse" x1="-9.2578" y1="659.1276" x2="-9.2578" y2="593.0876" gradientTransform="matrix(8.5333 0 0 -8.5333 369.1334 5595.9692)">
		<stop  offset="0" style="stop-color:#FC5C7D"/>
		<stop  offset="0.129" style="stop-color:#F35E85"/>
		<stop  offset="0.343" style="stop-color:#D9659B"/>
		<stop  offset="0.616" style="stop-color:#B070BF"/>
		<stop  offset="0.934" style="stop-color:#777FF0"/>
		<stop  offset="1" style="stop-color:#6A82FB"/>
	</linearGradient>
	<path style="fill:url(#SVGID_5_);" d="M256,221.867h85.333c4.71,0,8.533-3.823,8.533-8.533v-68.267c0-4.71-3.823-8.533-8.533-8.533
		h-102.4c-4.71,0-8.533,3.823-8.533,8.533v51.2C230.4,210.406,241.86,221.867,256,221.867z M281.6,153.6h51.2v51.2h-51.2V153.6z
		 M247.467,153.6h17.067v51.2H256c-4.71,0-8.533-3.823-8.533-8.533V153.6z"/>
	
		<linearGradient id="SVGID_6_" gradientUnits="userSpaceOnUse" x1="-7.2578" y1="659.1276" x2="-7.2578" y2="593.0876" gradientTransform="matrix(8.5333 0 0 -8.5333 369.1334 5595.9692)">
		<stop  offset="0" style="stop-color:#FC5C7D"/>
		<stop  offset="0.129" style="stop-color:#F35E85"/>
		<stop  offset="0.343" style="stop-color:#D9659B"/>
		<stop  offset="0.616" style="stop-color:#B070BF"/>
		<stop  offset="0.934" style="stop-color:#777FF0"/>
		<stop  offset="1" style="stop-color:#6A82FB"/>
	</linearGradient>
	<rect x="298.667" y="170.667" style="fill:url(#SVGID_6_);" width="17.067" height="17.067"/>
	
		<linearGradient id="SVGID_7_" gradientUnits="userSpaceOnUse" x1="-27.2578" y1="659.1276" x2="-27.2578" y2="593.0876" gradientTransform="matrix(8.5333 0 0 -8.5333 369.1334 5595.9692)">
		<stop  offset="0" style="stop-color:#FC5C7D"/>
		<stop  offset="0.129" style="stop-color:#F35E85"/>
		<stop  offset="0.343" style="stop-color:#D9659B"/>
		<stop  offset="0.616" style="stop-color:#B070BF"/>
		<stop  offset="0.934" style="stop-color:#777FF0"/>
		<stop  offset="1" style="stop-color:#6A82FB"/>
	</linearGradient>
	<rect x="128" y="59.733" style="fill:url(#SVGID_7_);" width="17.067" height="17.067"/>
	
		<linearGradient id="SVGID_8_" gradientUnits="userSpaceOnUse" x1="-15.7578" y1="659.1276" x2="-15.7578" y2="593.0876" gradientTransform="matrix(8.5333 0 0 -8.5333 369.1334 5595.9692)">
		<stop  offset="0" style="stop-color:#FC5C7D"/>
		<stop  offset="0.129" style="stop-color:#F35E85"/>
		<stop  offset="0.343" style="stop-color:#D9659B"/>
		<stop  offset="0.616" style="stop-color:#B070BF"/>
		<stop  offset="0.934" style="stop-color:#777FF0"/>
		<stop  offset="1" style="stop-color:#6A82FB"/>
	</linearGradient>
	<rect x="162.133" y="59.733" style="fill:url(#SVGID_8_);" width="145.067" height="17.067"/>
</g>
<g>
</g>
<g>
</g>
<g>
</g>
<g>
</g>
<g>
</g>
<g>
</g>
<g>
</g>
<g>
</g>
<g>
</g>
<g>
</g>
<g>
</g>
<g>
</g>
<g>
</g>
<g>
</g>
<g>
</g>
</svg>
